<!--<?xml version="1.0" encoding="UTF-8"?>-->
<!--<svg xmlns="http://www.w3.org/2000/svg" xmlns:xlink="http://www.w3.org/1999/xlink" width="200px" height="200px" viewBox="0 0 200 200" version="1.1">-->
<!--<g id="surface1">-->
<!--<path style=" stroke:none;fill-rule:nonzero;fill:rgb(0%,0%,0%);fill-opacity:1;" d="M 180.917969 63.082031 L 137 19.082031 C 135.402344 17.5625 133.289062 16.699219 131.082031 16.667969 L 68.917969 16.667969 C 66.710938 16.699219 64.597656 17.5625 63 19.082031 L 19.082031 63.082031 C 17.542969 64.636719 16.675781 66.730469 16.667969 68.917969 L 16.667969 131.082031 C 16.675781 133.269531 17.542969 135.363281 19.082031 136.917969 L 63 180.917969 C 64.597656 182.4375 66.710938 183.300781 68.917969 183.332031 L 131.082031 183.332031 C 133.289062 183.300781 135.402344 182.4375 137 180.917969 L 180.917969 136.917969 C 182.457031 135.363281 183.324219 133.269531 183.332031 131.082031 L 183.332031 68.917969 C 183.324219 66.730469 182.457031 64.636719 180.917969 63.082031 Z M 180.917969 63.082031 "/>-->
<!--<path style=" stroke:none;fill-rule:nonzero;fill:rgb(17.254902%,66.27451%,73.72549%);fill-opacity:1;" d="M 106.917969 77.082031 L 125 103.75 C 126.71875 106.351562 126.835938 109.699219 125.3125 112.417969 C 123.785156 115.136719 120.867188 116.777344 117.75 116.667969 L 82.25 116.667969 C 79.132812 116.777344 76.214844 115.136719 74.6875 112.417969 C 73.164062 109.699219 73.28125 106.351562 75 103.75 L 92.75 77.082031 C 94.269531 74.632812 96.949219 73.140625 99.832031 73.140625 C 102.71875 73.140625 105.398438 74.632812 106.917969 77.082031 Z M 106.917969 77.082031 "/>-->
<!--</g>-->
<!--</svg>-->
<svg height="200" viewBox="0 0 200 200" width="200" xmlns="http://www.w3.org/2000/svg">
    <filter id="a" height="150%" width="150%">
        <feGaussianBlur in="SourceAlpha" result="blur" stdDeviation="3"/>
        <feColorMatrix in="blur" result="blurAlpha" values="2 0 0 0 0 0 2 0 0 0 0 0 2 0 0 0 0 0 0.5 0"/>
        <feOffset dx="4.5" dy="4.5" in="blurAlpha" result="offsetBlur"/>
        <feBlend in="SourceGraphic" in2="offsetBlur"/>
    </filter>
<path d="M 180.917969 63.082031 L 136.917969 19.082031 C 135.363281 17.542969 133.269531 16.675781 131.082031 16.667969 L 68.917969 16.667969 C 66.730469 16.675781 64.636719 17.542969 63.082031 19.082031 L 19.082031 63.082031 C 17.542969 64.636719 16.675781 66.730469 16.667969 68.917969 L 16.667969 131.082031 C 16.675781 133.269531 17.542969 135.363281 19.082031 136.917969 L 63.082031 180.917969 C 64.636719 182.457031 66.730469 183.324219 68.917969 183.332031 L 131.082031 183.332031 C 133.269531 183.324219 135.363281 182.457031 136.917969 180.917969 L 180.917969 136.917969 C 182.457031 135.363281 183.324219 133.269531 183.332031 131.082031 L 183.332031 68.917969 C 183.324219 66.730469 182.457031 64.636719 180.917969 63.082031 Z M 180.917969 63.082031 "
          fill="#686d6e" fill-rule="evenodd" stroke="#333" stroke-width="6" stroke-linejoin="bevel" filter="url(#a)"/>
<path d="M 106.917969 77.082031 L 125 103.75 C 126.71875 106.351562 126.835938 109.699219 125.3125 112.417969 C 123.785156 115.136719 120.867188 116.777344 117.75 116.667969 L 82.25 116.667969 C 79.132812 116.777344 76.214844 115.136719 74.6875 112.417969 C 73.164062 109.699219 73.28125 106.351562 75 103.75 L 92.75 77.082031 C 94.269531 74.632812 96.949219 73.140625 99.832031 73.140625 C 102.71875 73.140625 105.398438 74.632812 106.917969 77.082031 Z M 106.917969 77.082031 9"
      fill="#333" fill-rule="evenodd" stroke="#333" stroke-width="5" stroke-linejoin="bevel" filter="url(#a)"/>
</svg>
