<svg height="200" viewBox="0 0 200 200" width="200" xmlns="http://www.w3.org/2000/svg">
    <filter id="a" height="150%" width="150%">
        <feGaussianBlur in="SourceAlpha" result="blur" stdDeviation="3"/>
        <feColorMatrix in="blur" result="blurAlpha" values="2 0 0 0 0 0 2 0 0 0 0 0 2 0 0 0 0 0 0.5 0"/>
        <feOffset dx="4.5" dy="4.5" in="blurAlpha" result="offsetBlur"/>
        <feBlend in="SourceGraphic" in2="offsetBlur"/>
    </filter>
<path d="M 180.917969 63.082031 L 136.917969 19.082031 C 135.363281 17.542969 133.269531 16.675781 131.082031 16.667969 L 68.917969 16.667969 C 66.730469 16.675781 64.636719 17.542969 63.082031 19.082031 L 19.082031 63.082031 C 17.542969 64.636719 16.675781 66.730469 16.667969 68.917969 L 16.667969 131.082031 C 16.675781 133.269531 17.542969 135.363281 19.082031 136.917969 L 63.082031 180.917969 C 64.636719 182.457031 66.730469 183.324219 68.917969 183.332031 L 131.082031 183.332031 C 133.269531 183.324219 135.363281 182.457031 136.917969 180.917969 L 180.917969 136.917969 C 182.457031 135.363281 183.324219 133.269531 183.332031 131.082031 L 183.332031 68.917969 C 183.324219 66.730469 182.457031 64.636719 180.917969 63.082031 Z M 180.917969 63.082031 "
          fill="#686d6e" fill-rule="evenodd" stroke="#333" stroke-width="6" stroke-linejoin="bevel" filter="url(#a)"/>
<path d="M 93.082031 122.917969 L 75 96.25 C 73.28125 93.648438 73.164062 90.300781 74.6875 87.582031 C 76.214844 84.863281 79.132812 83.222656 82.25 83.332031 L 117.75 83.332031 C 120.867188 83.222656 123.785156 84.863281 125.3125 87.582031 C 126.835938 90.300781 126.71875 93.648438 125 96.25 L 107.25 122.917969 C 105.730469 125.367188 103.050781 126.859375 100.167969 126.859375 C 97.28125 126.859375 94.601562 125.367188 93.082031 122.917969 Z M 93.082031 122.917969"
      fill="#c3d9db" fill-rule="evenodd" stroke="#c3d9db" stroke-width="4" stroke-linejoin="bevel" filter="url(#a)"/>
</svg>
